<?xml version="1.0" encoding="UTF-8" standalone="no"?>
<!DOCTYPE svg PUBLIC "-//W3C//DTD SVG 1.1//EN"
 "http://www.w3.org/Graphics/SVG/1.1/DTD/svg11.dtd">
<!-- Generated by graphviz version 2.40.1 (20161225.0304)
 -->
<!-- Title: dependencies Pages: 1 -->
<svg width="504pt" height="284pt"
 viewBox="0.00 0.00 504.00 284.00" xmlns="http://www.w3.org/2000/svg" xmlns:xlink="http://www.w3.org/1999/xlink">
<g id="graph0" class="graph" transform="scale(1 1) rotate(0) translate(4 280)">
<title>dependencies</title>
<polygon fill="#ffffff" stroke="transparent" points="-4,4 -4,-280 500,-280 500,4 -4,4"/>
<text text-anchor="start" x="227.0091" y="-42.4" font-family="sans-serif" font-weight="bold" font-size="14.00" fill="#000000">Legend</text>
<polygon fill="#ffffb3" stroke="transparent" points="14,-10 14,-30 34,-30 34,-10 14,-10"/>
<text text-anchor="start" x="37.629" y="-15.4" font-family="sans-serif" font-size="14.00" fill="#000000"> &#160;Declarations</text>
<polygon fill="#8dd3c7" stroke="transparent" points="127,-10 127,-30 147,-30 147,-10 127,-10"/>
<text text-anchor="start" x="150.7251" y="-15.4" font-family="sans-serif" font-size="14.00" fill="#000000"> &#160;Module</text>
<polygon fill="#80b1d3" stroke="transparent" points="213,-10 213,-30 233,-30 233,-10 213,-10"/>
<text text-anchor="start" x="236.7812" y="-15.4" font-family="sans-serif" font-size="14.00" fill="#000000"> &#160;Bootstrap</text>
<polygon fill="#fdb462" stroke="transparent" points="310,-10 310,-30 330,-30 330,-10 310,-10"/>
<text text-anchor="start" x="333.6732" y="-15.4" font-family="sans-serif" font-size="14.00" fill="#000000"> &#160;Providers</text>
<polygon fill="#fb8072" stroke="transparent" points="406,-10 406,-30 426,-30 426,-10 406,-10"/>
<text text-anchor="start" x="429.7258" y="-15.4" font-family="sans-serif" font-size="14.00" fill="#000000"> &#160;Exports</text>
<g id="clust1" class="cluster">
<title>cluster_ActionOutletModule</title>
<polygon fill="none" stroke="#000000" stroke-dasharray="1,5" points="58,-70 58,-268 438,-268 438,-70 58,-70"/>
</g>
<g id="clust2" class="cluster">
<title>cluster_ActionOutletModule_declarations</title>
<polygon fill="none" stroke="#000000" points="272,-78 272,-130 430,-130 430,-78 272,-78"/>
</g>
<g id="clust5" class="cluster">
<title>cluster_ActionOutletModule_exports</title>
<polygon fill="none" stroke="#000000" points="177,-208 177,-260 337,-260 337,-208 177,-208"/>
</g>
<g id="clust7" class="cluster">
<title>cluster_ActionOutletModule_providers</title>
<polygon fill="none" stroke="#000000" points="66,-78 66,-130 264,-130 264,-78 66,-78"/>
</g>
<!-- ActionOutletDirective -->
<g id="node1" class="node">
<title>ActionOutletDirective</title>
<polygon fill="#ffffb3" stroke="#000000" points="421.6783,-122 280.3217,-122 280.3217,-86 421.6783,-86 421.6783,-122"/>
<text text-anchor="middle" x="351" y="-99.8" font-family="Times,serif" font-size="14.00" fill="#000000">ActionOutletDirective</text>
</g>
<!-- ActionOutletModule -->
<g id="node2" class="node">
<title>ActionOutletModule</title>
<polygon fill="#8dd3c7" stroke="#000000" points="323.1457,-187 320.1457,-191 299.1457,-191 296.1457,-187 190.8543,-187 190.8543,-151 323.1457,-151 323.1457,-187"/>
<text text-anchor="middle" x="257" y="-164.8" font-family="Times,serif" font-size="14.00" fill="#000000">ActionOutletModule</text>
</g>
<!-- ActionOutletDirective&#45;&gt;ActionOutletModule -->
<g id="edge1" class="edge">
<title>ActionOutletDirective&#45;&gt;ActionOutletModule</title>
<path fill="none" stroke="#000000" d="M301.8668,-122.1061C301.8668,-122.1061 301.8668,-140.991 301.8668,-140.991"/>
<polygon fill="#000000" stroke="#000000" points="298.3668,-140.9909 301.8668,-150.991 305.3668,-140.991 298.3668,-140.9909"/>
</g>
<!-- ActionOutletDirective  -->
<g id="node3" class="node">
<title>ActionOutletDirective </title>
<polygon fill="#fb8072" stroke="#000000" points="329.1786,-252 184.8214,-252 184.8214,-216 329.1786,-216 329.1786,-252"/>
<text text-anchor="middle" x="257" y="-229.8" font-family="Times,serif" font-size="14.00" fill="#000000">ActionOutletDirective </text>
</g>
<!-- ActionOutletModule&#45;&gt;ActionOutletDirective  -->
<g id="edge2" class="edge">
<title>ActionOutletModule&#45;&gt;ActionOutletDirective </title>
<path fill="none" stroke="#000000" stroke-dasharray="5,2" d="M257,-187.1061C257,-187.1061 257,-205.991 257,-205.991"/>
<polygon fill="#000000" stroke="#000000" points="253.5001,-205.9909 257,-215.991 260.5001,-205.991 253.5001,-205.9909"/>
</g>
<!-- ActionOutletFactory -->
<g id="node4" class="node">
<title>ActionOutletFactory</title>
<ellipse fill="#fdb462" stroke="#000000" cx="165" cy="-104" rx="90.9071" ry="18"/>
<text text-anchor="middle" x="165" y="-99.8" font-family="Times,serif" font-size="14.00" fill="#000000">ActionOutletFactory</text>
</g>
<!-- ActionOutletFactory&#45;&gt;ActionOutletModule -->
<g id="edge3" class="edge">
<title>ActionOutletFactory&#45;&gt;ActionOutletModule</title>
<path fill="none" stroke="#000000" d="M223.3155,-118.104C223.3155,-118.104 223.3155,-140.7209 223.3155,-140.7209"/>
<polygon fill="#000000" stroke="#000000" points="219.8156,-140.7209 223.3155,-150.7209 226.8156,-140.7209 219.8156,-140.7209"/>
</g>
</g>
</svg>
